<?xml version="1.0" encoding="UTF-8"?>
<!DOCTYPE svg PUBLIC "-//W3C//DTD SVG 1.1//EN" "http://www.w3.org/Graphics/SVG/1.1/DTD/svg11.dtd">
<!-- Creator: CorelDRAW X5 -->
<svg xmlns="http://www.w3.org/2000/svg" xml:space="preserve" width="100mm" height="34.3607mm" style="shape-rendering:geometricPrecision; text-rendering:geometricPrecision; image-rendering:optimizeQuality; fill-rule:evenodd; clip-rule:evenodd"
viewBox="0 0 2484 853"
 xmlns:xlink="http://www.w3.org/1999/xlink">
 <defs>
  <style type="text/css">
   <![CDATA[
    .fil1 {fill:#FEFEFE;fill-rule:nonzero}
    .fil0 {fill:red;fill-rule:nonzero}
   ]]>
  </style>
 </defs>
 <g id="Capa_x0020_1">
  <metadata id="CorelCorpID_0Corel-Layer"/>
  <g id="_395766632">
   <path class="fil0" d="M0 0l401 0 0 82c-86,100 -207,249 -227,386l-94 0c12,-129 141,-304 225,-388l-304 0 0 -80z"/>
   <polygon class="fil0" points="490,0 579,0 579,80 490,80 "/>
   <polygon class="fil1" points="490,126 579,126 579,468 490,468 "/>
   <path class="fil1" d="M762 395l136 0c70,0 144,-23 144,-157 0,-149 -95,-158 -149,-158l-131 0 0 316zm-97 -388l248 0c180,0 225,103 225,234 0,99 -45,225 -202,225l-271 0 0 -460z"/>
   <path class="fil1" d="M1514 263c-11,-68 -71,-89 -115,-89 -41,0 -99,19 -114,89l229 0zm-229 57c2,38 28,97 116,97 59,0 84,-21 102,-49l97 0c-19,38 -66,113 -196,113 -154,0 -211,-90 -211,-180 0,-114 84,-187 205,-187 151,0 209,93 209,193l0 13 -322 0z"/>
   <path class="fil1" d="M1945 298c-26,11 -53,14 -117,21 -67,8 -83,23 -83,52 0,45 41,53 71,53 48,0 128,-18 128,-93l0 -33zm89 92c0,19 14,19 19,19 8,0 22,-1 29,-2l0 62c-17,3 -33,8 -63,8 -58,0 -64,-31 -67,-44 -17,17 -61,47 -160,47 -89,0 -139,-40 -139,-107 0,-94 97,-102 153,-108 128,-12 141,-17 141,-43 0,-39 -45,-49 -97,-49 -59,0 -90,19 -93,57l-87 0c13,-90 79,-117 180,-117 178,0 184,70 184,115l0 162z"/>
   <path class="fil1" d="M2200 361c3,52 62,59 94,59 44,0 93,-12 93,-44 0,-26 -15,-35 -111,-48 -106,-14 -161,-26 -161,-104 0,-97 113,-110 171,-110 53,0 180,8 185,117l-93 0c-7,-51 -66,-57 -97,-57 -50,0 -77,21 -77,39 0,28 8,32 94,44 112,16 185,27 185,106 0,87 -83,117 -189,117 -73,0 -188,-15 -191,-120l97 0z"/>
  </g>
  <path class="fil1" d="M539 853c-8,0 -15,-1 -22,-2 -7,-1 -13,-4 -20,-7 -6,-3 -12,-7 -17,-11l0 0 10 -13 0 0c7,6 14,10 22,13 8,3 17,4 27,4 14,0 25,-3 32,-8 8,-6 11,-13 11,-23l0 0c0,-7 -2,-12 -6,-16 -4,-4 -9,-6 -15,-8 -6,-2 -12,-3 -19,-5 -6,-1 -13,-3 -19,-4 -7,-2 -12,-4 -18,-6 -5,-3 -10,-7 -13,-12 -3,-5 -5,-12 -5,-20l0 0c0,-15 5,-27 15,-35 10,-8 24,-12 43,-12 9,0 17,1 25,4 8,3 16,7 25,13l0 0 -9 13 0 0c-7,-5 -14,-9 -21,-11 -7,-2 -13,-4 -20,-4 -13,0 -24,3 -31,8 -7,6 -11,13 -11,24l0 0c0,7 2,12 6,15 4,4 9,6 16,8 7,2 14,3 21,5 6,1 12,3 19,4 6,2 12,4 17,7 5,3 9,7 12,12 3,5 4,12 4,20l0 0c0,15 -5,27 -16,35 -10,8 -25,12 -44,12zm203 0c-12,0 -22,-2 -31,-7 -9,-5 -15,-11 -19,-20 -4,-9 -7,-20 -7,-32l0 -46c0,-13 2,-24 7,-32 4,-9 11,-16 19,-20 8,-5 19,-7 31,-7 12,0 22,2 31,7 9,5 15,11 19,20 4,9 7,20 7,32l0 46c0,13 -2,23 -7,32 -4,9 -11,16 -19,20 -8,5 -19,7 -31,7zm0 -15c13,0 23,-4 30,-12 7,-8 11,-19 11,-33l0 -48c0,-14 -4,-25 -11,-33 -7,-8 -17,-12 -30,-12 -13,0 -23,4 -30,12 -7,8 -11,19 -11,33l0 48c0,14 4,25 11,33 7,8 17,12 30,12zm151 13l0 -162 16 0 0 162 -16 0zm11 -72l0 -15 79 0 0 15 -79 0zm0 -76l0 -15 91 0 0 15 -91 0zm201 147l0 -156 16 0 0 156 -16 0zm-49 -147l0 -15 115 0 0 15 -115 0zm225 125l36 -140 11 0 35 140 34 -140 18 0 -44 162 -17 0 -32 -128 -33 128 -17 0 -44 -162 18 0 34 140zm200 23l60 -162 19 0 60 162 -18 0 -52 -145 -52 145 -18 0zm28 -39l0 -15 85 0 0 15 -85 0zm203 -29l0 -15 55 0c9,0 17,-3 22,-9 6,-6 8,-14 8,-23l0 0c0,-10 -3,-17 -8,-23 -5,-6 -13,-9 -22,-9l-55 0 0 -15 54 0c9,0 18,2 25,6 7,4 13,9 16,16 4,7 6,15 6,25l0 0c0,9 -2,18 -6,25 -4,7 -9,12 -16,16 -7,4 -15,6 -25,6l-54 0zm-10 69l0 -162 16 0 0 162 -16 0zm99 0l-37 -74 15 -5 42 79 -19 0zm107 0l0 -162 16 0 0 162 -16 0zm11 0l0 -15 93 0 0 15 -93 0zm0 -73l0 -15 81 0 0 15 -81 0zm0 -74l0 -15 93 0 0 15 -93 0z"/>
 </g>
</svg>
